<svg xmlns="http://www.w3.org/2000/svg" width="427" height="155" viewBox="0 0 427 155">
  <g id="Group_417" data-name="Group 417" transform="translate(-211 125)">
    <text id="R" transform="translate(211 -9)" fill="#1e3558" font-size="155" font-family="Times-Roman, Times"><tspan x="0" y="0">R</tspan></text>
    <rect id="Rectangle_12" data-name="Rectangle 12" width="66.393" height="5.849" transform="translate(287.84 -14.863)" fill="#1e3558"/>
    <rect id="Rectangle_13" data-name="Rectangle 13" width="105.288" height="5.849" transform="translate(251.945 -60.658)" fill="#1e3558"/>
    <rect id="Rectangle_14" data-name="Rectangle 14" width="146.233" height="5.849" transform="translate(211 -111.352)" fill="#1e3558"/>
    <path id="Path_22" data-name="Path 22" d="M9.749,0H284.667a9.7,9.7,0,0,1,9.749,9.655V92.683a9.7,9.7,0,0,1-9.749,9.655H9.749A9.7,9.7,0,0,1,0,92.683V9.655A9.7,9.7,0,0,1,9.749,0Z" transform="translate(343.584 -111.352)" fill="#1e3558"/>
    <text id="Reiss_Edwards" data-name="Reiss Edwards" transform="translate(357.233 -44.205)" fill="#fff" font-size="45" font-family="Calibri"><tspan x="0" y="0">Reiss Edwards</tspan></text>
  </g>
</svg>
