<svg xmlns="http://www.w3.org/2000/svg" width="219" height="80" viewBox="0 0 219 80">
  <g id="Group_418" data-name="Group 418" transform="translate(-211 125)">
    <text id="R" transform="translate(211 -65)" fill="#fff" font-size="80" font-family="Times-Roman, Times"><tspan x="0" y="0">R</tspan></text>
    <rect id="Rectangle_12" data-name="Rectangle 12" width="32" height="3" transform="translate(254 -68)" fill="#fff"/>
    <rect id="Rectangle_13" data-name="Rectangle 13" width="54" height="3" transform="translate(232 -92)" fill="#fff"/>
    <rect id="Rectangle_14" data-name="Rectangle 14" width="75" height="3" transform="translate(211 -118)" fill="#fff"/>
    <path id="Path_22" data-name="Path 22" d="M5,0H146a5,5,0,0,1,5,5V48a5,5,0,0,1-5,5H5a5,5,0,0,1-5-5V5A5,5,0,0,1,5,0Z" transform="translate(279 -118)" fill="#f7f7f7"/>
    <text id="Reiss_Edwards" data-name="Reiss Edwards" transform="translate(286 -83)" fill="#1e3558" font-size="24" font-family="Calibri"><tspan x="0" y="0">Reiss Edwards</tspan></text>
  </g>
</svg>
