<svg xmlns="http://www.w3.org/2000/svg" xmlns:xlink="http://www.w3.org/1999/xlink" width="670.29" height="741.365" viewBox="0 0 670.29 741.365">
  <defs>
    <linearGradient id="linear-gradient" x1="0.5" y1="1" x2="0.5" gradientUnits="objectBoundingBox">
      <stop offset="0" stop-color="#1771ff"/>
      <stop offset="0.03" stop-color="#2a7efc"/>
      <stop offset="0.088" stop-color="#4a94f7"/>
      <stop offset="0.148" stop-color="#63a6f4"/>
      <stop offset="0.211" stop-color="#75b2f1"/>
      <stop offset="0.278" stop-color="#7fb9f0"/>
      <stop offset="0.356" stop-color="#83bcf0"/>
      <stop offset="0.381" stop-color="#88bef0" stop-opacity="0.906"/>
      <stop offset="0.446" stop-color="#93c4f2" stop-opacity="0.698"/>
      <stop offset="0.513" stop-color="#9ecaf4" stop-opacity="0.51"/>
      <stop offset="0.582" stop-color="#a7cef5" stop-opacity="0.353"/>
      <stop offset="0.653" stop-color="#aed2f6" stop-opacity="0.224"/>
      <stop offset="0.727" stop-color="#b3d5f7" stop-opacity="0.125"/>
      <stop offset="0.806" stop-color="#b7d7f8" stop-opacity="0.055"/>
      <stop offset="0.892" stop-color="#bad8f8" stop-opacity="0.012"/>
      <stop offset="1" stop-color="#bbd9f9" stop-opacity="0"/>
    </linearGradient>
    <filter id="LEADS_MANAGEMENT" x="93.536" y="350.897" width="446" height="123" filterUnits="userSpaceOnUse">
      <feOffset dx="2" dy="2" input="SourceAlpha"/>
      <feGaussianBlur result="blur"/>
      <feFlood flood-color="#fff" flood-opacity="0.78"/>
      <feComposite operator="in" in2="blur"/>
      <feComposite in="SourceGraphic"/>
    </filter>
  </defs>
  <g id="Group_416" data-name="Group 416" transform="translate(-158.69 -155.259)">
    <g id="Group_303" data-name="Group 303" transform="translate(159.53 155.259)">
      <g id="Group_270" data-name="Group 270" transform="translate(22.658 152.267)">
        <path id="Path_271" data-name="Path 271" d="M192.826,329.944c17.308-15.292,63.047-26.028,118.118-26.028s101.065,10.736,118.739,26.028c7.184-5.061,11.617-10.62,12.51-16.455,3.593-23.462-55.346-42.482-131.643-42.482s-134.781,19.02-130.628,42.482C180.955,319.325,185.521,324.883,192.826,329.944Z" transform="translate(-11.635 2.303)" fill="#ecf4ff"/>
        <path id="Path_272" data-name="Path 272" d="M174.9,299.693c22.251-18.348,81.758-31.234,153.615-31.234s131.674,12.886,154.364,31.234c9.462-6.073,15.363-12.744,16.667-19.745,5.24-28.154-71.544-50.979-171.5-50.979s-176.2,22.825-170.282,50.979C159.231,286.949,165.291,293.62,174.9,299.693Z" transform="translate(-30.048 -32.443)" fill="#ecf4ff"/>
        <path id="Path_273" data-name="Path 273" d="M150.942,263.721C179.755,241.7,257.77,226.24,352.25,226.24S525.115,241.7,554.457,263.721c12.556-7.286,20.472-15.292,22.37-23.694,7.628-33.786-93.172-61.175-225.144-61.175S119.566,206.241,128,240.027C130.1,248.429,138.211,256.435,150.942,263.721Z" transform="translate(-54.785 -73.867)" fill="#ecf4ff"/>
        <path id="Path_274" data-name="Path 274" d="M119.288,223.22C156.7,196.8,259.333,178.243,384.015,178.243s227.762,18.554,265.8,44.977c16.729-8.745,27.395-18.351,30.151-28.434,11.082-40.544-121.727-73.411-296.636-73.411S76.4,154.242,88.458,194.786C91.455,204.868,102.349,214.474,119.288,223.22Z" transform="translate(-87.694 -121.375)" fill="#ecf4ff"/>
      </g>
      <g id="Group_288" data-name="Group 288" transform="translate(58.298 14.754)">
        <g id="Group_271" data-name="Group 271" transform="translate(329.728)">
          <path id="Path_275" data-name="Path 275" d="M287.725,83,374.276,46.09l-26.644,73.7Z" transform="translate(-287.725 -46.09)" fill="#83bcf0"/>
          <path id="Path_276" data-name="Path 276" d="M362.873,46.09,301.52,98.472l3.332,28.35,5.7-22.8Z" transform="translate(-276.322 -46.09)" fill="#6aa9e3"/>
          <path id="Path_277" data-name="Path 277" d="M303.344,100.608l16.721-16.035L309.043,77.8Z" transform="translate(-274.815 -19.876)" fill="#4090c7"/>
        </g>
        <g id="Group_274" data-name="Group 274" transform="translate(101.315 57.709)">
          <g id="Group_273" data-name="Group 273" transform="translate(0 0)">
            <g id="Group_272" data-name="Group 272" transform="translate(0 0)">
              <path id="Path_325" data-name="Path 325" d="M2.277,0H69.128A2.277,2.277,0,0,1,71.4,2.277V129a2.277,2.277,0,0,1-2.277,2.277H2.277A2.277,2.277,0,0,1,0,129V2.277A2.277,2.277,0,0,1,2.277,0Z" transform="translate(0 23.781) rotate(-19.454)" fill="#1e3558"/>
              <rect id="Rectangle_144" data-name="Rectangle 144" width="71.404" height="103.933" transform="translate(4.001 35.108) rotate(-19.454)" fill="#83bcf0"/>
              <path id="Path_278" data-name="Path 278" d="M208.282,148.06a3.414,3.414,0,1,1-4.356-2.082A3.415,3.415,0,0,1,208.282,148.06Z" transform="translate(-130.459 -21.398)" fill="#f8f8f8"/>
              <path id="Path_279" data-name="Path 279" d="M190.8,87.059,179.7,90.977a.842.842,0,0,1-1.072-.513h0a.84.84,0,0,1,.513-1.072l11.091-3.918a.84.84,0,0,1,1.072.513h0A.841.841,0,0,1,190.8,87.059Z" transform="translate(-149.523 -71.285)" fill="#f8f8f8"/>
            </g>
          </g>
          <path id="Path_280" data-name="Path 280" d="M205.027,143.858l-18.534-4.247.909-3.968,14.036,3.216,3.5-34.767,4.051.408Z" transform="translate(-142.985 -55.856)" fill="#fff"/>
        </g>
        <path id="Path_284" data-name="Path 284" d="M169.113,150.754l-5.054-6.117-3.39,2.8a13.429,13.429,0,0,0-2.258-1.195l.416-4.38-7.9-.751-.416,4.38a13.3,13.3,0,0,0-2.442.747l-2.8-3.39-6.117,5.054,2.8,3.39a13.416,13.416,0,0,0-1.195,2.256l-4.38-.416-.751,7.9,4.38.416a13.44,13.44,0,0,0,.747,2.442l-3.39,2.8,5.054,6.117,3.39-2.8a13.5,13.5,0,0,0,2.258,1.195l-.418,4.378,7.9.753.416-4.38a13.44,13.44,0,0,0,2.442-.747l2.8,3.39,6.117-5.054-2.8-3.39a13.5,13.5,0,0,0,1.195-2.258l4.38.416.751-7.9L166.47,156a13.47,13.47,0,0,0-.747-2.44Zm-10.537,14.428a8.377,8.377,0,1,1,1.122-11.794A8.377,8.377,0,0,1,158.576,165.181Z" transform="translate(-83.712 32.452)" fill="#1e3558"/>
        <path id="Path_285" data-name="Path 285" d="M304.749,187.874l-9.062-10.967-6.077,5.021a23.981,23.981,0,0,0-4.046-2.141l.747-7.852-14.161-1.348-.747,7.852a23.957,23.957,0,0,0-4.378,1.341L262,173.7l-10.967,9.062,5.021,6.077a24.316,24.316,0,0,0-2.141,4.046l-7.851-.747L244.719,206.3l7.852.747a24.117,24.117,0,0,0,1.339,4.376l-6.077,5.021,9.062,10.967,6.077-5.021a24.111,24.111,0,0,0,4.046,2.141l-.747,7.852,14.161,1.346.747-7.852a24.073,24.073,0,0,0,4.376-1.339l5.023,6.077,10.965-9.062-5.021-6.077a23.91,23.91,0,0,0,2.141-4.046l7.852.747,1.348-14.161-7.852-.747a24.075,24.075,0,0,0-1.339-4.376Zm-18.892,25.862a15.017,15.017,0,1,1,2.011-21.142A15.015,15.015,0,0,1,285.857,213.737Z" transform="translate(6.456 56.815)" fill="#1e3558"/>
        <path id="Path_286" data-name="Path 286" d="M227.063,218.673l2.621-18.346-10.168-1.452a31.238,31.238,0,0,0-1.485-5.776l8.221-6.166-11.12-14.826-8.221,6.166a31.207,31.207,0,0,0-5.129-3.043l1.452-10.167-18.348-2.621-1.452,10.168a31.169,31.169,0,0,0-5.776,1.485l-6.165-8.221L156.667,177l6.165,8.221a31.328,31.328,0,0,0-3.041,5.129l-10.168-1.452L147,207.239l10.167,1.452a31.384,31.384,0,0,0,1.485,5.776l-8.219,6.166,11.12,14.826,8.221-6.166a31.269,31.269,0,0,0,5.127,3.043l-1.45,10.167,18.346,2.621,1.452-10.168a31.131,31.131,0,0,0,5.776-1.485l6.166,8.221,14.826-11.12-6.166-8.221a31.211,31.211,0,0,0,3.043-5.129Zm-41.486,4.479a19.565,19.565,0,1,1,22.136-16.6A19.567,19.567,0,0,1,185.576,223.152Z" transform="translate(-74.311 50.082)" fill="#83bcf0"/>
        <path id="Path_287" data-name="Path 287" d="M386.392,175.055l8.7-11.255-6.238-4.82a23.981,23.981,0,0,0,1.2-4.418l7.823-1-1.806-14.11-7.825,1a24.08,24.08,0,0,0-2.27-3.975l4.82-6.238-11.255-8.7-4.82,6.236a24.314,24.314,0,0,0-4.418-1.2l-1-7.823-14.11,1.808,1,7.823a24.08,24.08,0,0,0-3.975,2.27l-6.238-4.82-8.7,11.255,6.238,4.822a24.253,24.253,0,0,0-1.2,4.417l-7.823,1,1.806,14.11,7.825-1a24.006,24.006,0,0,0,2.27,3.975l-4.82,6.238,11.255,8.7,4.82-6.238a24.022,24.022,0,0,0,4.418,1.2l1,7.823,14.11-1.806-1-7.823a24.227,24.227,0,0,0,3.975-2.272ZM357,162.329a15.017,15.017,0,1,1,21.066-2.7A15.018,15.018,0,0,1,357,162.329Z" transform="translate(80.66 13.974)" fill="#1e3558"/>
        <g id="Group_278" data-name="Group 278" transform="translate(233.025 77.213)">
          <rect id="Rectangle_146" data-name="Rectangle 146" width="68.65" height="57.702" transform="translate(10.636 0) rotate(10.621)" fill="#1e3558"/>
          <path id="Path_288" data-name="Path 288" d="M273.393,114.642l-16.784-14.285a1.237,1.237,0,0,0-2.018.714l-4.035,21.519a1.233,1.233,0,0,0,.988,1.443,1.215,1.215,0,0,0,.634-.047L273,116.752a1.237,1.237,0,0,0,.4-2.11Z" transform="translate(-221.762 -78.692)" fill="#fff"/>
        </g>
        <g id="Group_281" data-name="Group 281" transform="translate(311.422 152.296)">
          <path id="Path_289" data-name="Path 289" d="M356.813,204.37l-24.638-4.649-14.187,9.686-10.879-14.413-23.446-4.422a7.315,7.315,0,0,1-5.832-8.545l8.788-46.6a7.316,7.316,0,0,1,8.545-5.832l73.152,13.8a7.315,7.315,0,0,1,5.832,8.545l-8.789,46.6A7.316,7.316,0,0,1,356.813,204.37Z" transform="translate(-277.703 -129.469)" fill="#83bcf0"/>
          <g id="Group_280" data-name="Group 280" transform="translate(24.343 14.899)">
            <g id="Group_279" data-name="Group 279" transform="translate(0)">
              <path id="Path_290" data-name="Path 290" d="M334.288,157.333a3.454,3.454,0,0,0-2.776-3.85l-5.284-1.065-6.1-1.231-3.681-.742c.206.042,1.138-1.806,1.258-2.046a9.386,9.386,0,0,0,.676-6.349c-.36-1.532-1.216-4.517-3.237-4.422-1.763.082-2.354,2-2.785,4.073-1.092,5.118-3.7,6.254-9.35,9.487-1.3.74-2.19,1.2-2.19,1.2l-4.2,20.834,4.369.88,9.162,1.847,10.888,2.194.59.119a3.39,3.39,0,0,0,2.539-6.152l.237.047a3.409,3.409,0,0,0,2.769-6.07,3.39,3.39,0,0,0,2.742-6.008l.347.069A3.392,3.392,0,0,0,334.288,157.333Z" transform="translate(-286.408 -137.626)" fill="#fff"/>
              <rect id="Rectangle_147" data-name="Rectangle 147" width="21.433" height="8.317" transform="translate(0 33.539) rotate(-78.609)" fill="#fff"/>
            </g>
          </g>
        </g>
        <g id="Group_283" data-name="Group 283" transform="translate(0 28.756)">
          <path id="Path_291" data-name="Path 291" d="M161.588,117.97l9.111,3.089a5.979,5.979,0,0,0,7.584-3.743l9.3-27.427a5.979,5.979,0,0,0-3.743-7.582L124.409,62.151a5.982,5.982,0,0,0-7.584,3.743l-9.3,27.427a5.981,5.981,0,0,0,3.743,7.584l36.091,12.24,7.153,17.727Z" transform="translate(-107.206 -61.833)" fill="#1e3558"/>
          <g id="Group_282" data-name="Group 282" transform="translate(17.113 14.433)">
            <rect id="Rectangle_148" data-name="Rectangle 148" width="42.626" height="2.842" transform="translate(5.932 0) rotate(18.733)" fill="#fff"/>
            <rect id="Rectangle_149" data-name="Rectangle 149" width="42.626" height="2.842" transform="translate(3.422 7.401) rotate(18.733)" fill="#fff"/>
            <rect id="Rectangle_150" data-name="Rectangle 150" width="42.626" height="2.842" transform="translate(0.913 14.801) rotate(18.733)" fill="#fff"/>
          </g>
        </g>
        <g id="Group_285" data-name="Group 285" transform="translate(210.695 31.937)">
          <ellipse id="Ellipse_6" data-name="Ellipse 6" cx="16.646" cy="16.646" rx="16.646" ry="16.646" transform="translate(0 6.742) rotate(-11.683)" fill="#83bcf0"/>
          <path id="Path_292" data-name="Path 292" d="M250.43,87.574a13.253,13.253,0,1,1-3.874-18.337A13.253,13.253,0,0,1,250.43,87.574Z" transform="translate(-219.653 -60.67)" fill="#6aa9e3"/>
          <g id="Group_284" data-name="Group 284" transform="translate(13.743 11.479)">
            <path id="Path_293" data-name="Path 293" d="M241.007,72.04a3.2,3.2,0,0,1,.279,4.354l-.17.259-2.011-1.047.194-.3c.592-.908.535-1.553-.168-2.011a1.139,1.139,0,0,0-1.713.442l-.157.241c-.471.723-.468,1.569.051,3.569.69,2.747.616,4.2-.3,5.611l-.2.314a3.171,3.171,0,0,1-4.15,1.388l-.882,1.353-1.556-1.014.88-1.353a3.284,3.284,0,0,1-.334-4.389l.482-.74,2.011,1.045-.508.78c-.59.908-.5,1.574.281,2.082a1.211,1.211,0,0,0,1.786-.395l.181-.278c.471-.723.469-1.569-.049-3.569-.692-2.747-.616-4.2.3-5.611l.181-.278a3.122,3.122,0,0,1,4.02-1.474l.762-1.167,1.556,1.014Z" transform="translate(-230.081 -69.859)" fill="#fff"/>
          </g>
        </g>
        <g id="Group_287" data-name="Group 287" transform="translate(345.622 236.006)">
          <circle id="Ellipse_7" data-name="Ellipse 7" cx="16.646" cy="16.646" r="16.646" transform="translate(0 28.589) rotate(-59.177)" fill="#83bcf0"/>
          <ellipse id="Ellipse_8" data-name="Ellipse 8" cx="13.252" cy="13.252" rx="13.252" ry="13.252" transform="translate(5.036 28.726) rotate(-63.354)" fill="#6aa9e3"/>
          <g id="Group_286" data-name="Group 286" transform="translate(17.915 13.829)">
            <path id="Path_294" data-name="Path 294" d="M309.632,184.2a3.191,3.191,0,0,1,3.553,2.53l.095.294-2.08.9-.108-.336c-.331-1.032-.866-1.4-1.666-1.138a1.14,1.14,0,0,0-.738,1.609l.088.274c.263.82.922,1.352,2.8,2.212,2.568,1.2,3.649,2.172,4.163,3.774l.115.356a3.173,3.173,0,0,1-1.54,4.1l.493,1.538-1.768.568-.495-1.538a3.282,3.282,0,0,1-3.617-2.508l-.27-.842,2.079-.9.285.884c.332,1.032.908,1.381,1.794,1.1a1.211,1.211,0,0,0,.822-1.635l-.1-.316c-.263-.82-.922-1.352-2.8-2.212-2.568-1.2-3.649-2.174-4.163-3.774l-.1-.316a3.123,3.123,0,0,1,1.394-4.048l-.426-1.328,1.768-.568Z" transform="translate(-306.235 -182.869)" fill="#fff"/>
          </g>
        </g>
      </g>
      <path id="Path_295" data-name="Path 295" d="M291.467,417.318V268.163H245.02V417.318H227.928L268.243,449.7l40.315-32.381Z" transform="translate(50.876 152.22)" fill="url(#linear-gradient)"/>
      <g id="Group_289" data-name="Group 289" transform="translate(21.327)">
        <path id="Path_296" data-name="Path 296" stroke="#83bcf0" d="M120.411,135.273a5.159,5.159,0,1,1-5.158-5.158A5.16,5.16,0,0,1,120.411,135.273Z" fill="none" transform="translate(-67.849 38.116)" stroke-linecap="round" stroke-linejoin="round" stroke-width="1.33" opacity="0.5"/>
        <path id="Path_297" data-name="Path 297" stroke="#83bcf0" d="M444.039,85.794a5.159,5.159,0,1,1-5.158-5.16A5.157,5.157,0,0,1,444.039,85.794Z" fill="none" transform="translate(199.647 -2.783)" stroke-linecap="round" stroke-linejoin="round" stroke-width="1.33" opacity="0.5"/>
        <path id="Path_298" data-name="Path 298" stroke="#83bcf0" d="M145.369,305.609a5.159,5.159,0,1,1-5.16-5.16A5.159,5.159,0,0,1,145.369,305.609Z" fill="none" transform="translate(-47.219 178.905)" stroke-linecap="round" stroke-linejoin="round" stroke-width="1.33" opacity="0.5"/>
        <path id="Path_299" data-name="Path 299" stroke="#83bcf0" d="M395.882,231.3a5.159,5.159,0,1,1-5.16-5.16A5.159,5.159,0,0,1,395.882,231.3Z" fill="none" transform="translate(159.842 117.489)" stroke-linecap="round" stroke-linejoin="round" stroke-width="1.33" opacity="0.5"/>
        <path id="Path_300" data-name="Path 300" d="M116.473,122.581v-.289a14.609,14.609,0,0,1-14.609-14.609h-.289a14.61,14.61,0,0,1-14.611,14.609v.289a14.61,14.61,0,0,1,14.611,14.609h.289A14.609,14.609,0,0,1,116.473,122.581Z" transform="translate(-86.965 19.575)" fill="#83bcf0" opacity="0.5"/>
        <path id="Path_301" data-name="Path 301" d="M454.111,68.6v-.289A14.61,14.61,0,0,1,439.5,53.7h-.289A14.61,14.61,0,0,1,424.6,68.315V68.6a14.609,14.609,0,0,1,14.609,14.609h.289A14.61,14.61,0,0,1,454.111,68.6Z" transform="translate(192.11 -25.042)" fill="#83bcf0" opacity="0.5"/>
        <path id="Path_302" data-name="Path 302" d="M138.179,290.428v-.289a14.609,14.609,0,0,1-14.609-14.609h-.289a14.61,14.61,0,0,1-14.611,14.609v.289a14.61,14.61,0,0,1,14.611,14.609h.289A14.609,14.609,0,0,1,138.179,290.428Z" transform="translate(-69.024 158.31)" fill="#83bcf0" opacity="0.5"/>
        <path id="Path_303" data-name="Path 303" d="M455.152,223.433v-.289a14.61,14.61,0,0,1-14.611-14.609h-.289a14.609,14.609,0,0,1-14.609,14.609v.289a14.61,14.61,0,0,1,14.609,14.611h.289A14.61,14.61,0,0,1,455.152,223.433Z" transform="translate(192.97 102.935)" fill="#83bcf0" opacity="0.5"/>
        <path id="Path_304" data-name="Path 304" d="M227.473,52.909v-.287a14.61,14.61,0,0,1-14.609-14.611h-.289a14.61,14.61,0,0,1-14.611,14.611v.287A14.611,14.611,0,0,1,212.576,67.52h.289A14.611,14.611,0,0,1,227.473,52.909Z" transform="translate(4.782 -38.012)" fill="#83bcf0" opacity="0.5"/>
      </g>
      <g id="Group_294" data-name="Group 294" transform="translate(28.998 234.994)">
        <g id="Group_290" data-name="Group 290" transform="translate(164.17 238.457)">
          <path id="Path_305" data-name="Path 305" d="M181.045,297.217h0v0Z" transform="translate(-181.045 -297.217)" fill="#bbd9f9"/>
          <path id="Path_306" data-name="Path 306" d="M310.679,334.3c-63.19,0-118.021-16.163-129.627-37.068L200.5,334.3c9.332,18.85,56.274,33.472,110.568,33.472,55.339,0,102.72-15.19,110.26-34.564l17.6-35.108C426.769,318.581,372.992,334.3,310.679,334.3Z" transform="translate(-181.038 -297.206)" fill="#bbd9f9"/>
        </g>
        <g id="Group_291" data-name="Group 291" transform="translate(124.372 171.248)">
          <path id="Path_307" data-name="Path 307" d="M159.256,260.421h0l0,0Z" transform="translate(-159.256 -260.421)" fill="#bbd9f9"/>
          <path id="Path_308" data-name="Path 308" d="M328.024,304.917c-81.859,0-153.228-19.394-168.759-44.48l26.032,44.48c12.442,22.62,73.226,40.166,143.2,40.166,71.316,0,132.715-18.227,142.9-41.475l23.674-42.129C478.776,286.058,408.746,304.917,328.024,304.917Z" transform="translate(-159.248 -260.408)" fill="#bbd9f9"/>
        </g>
        <g id="Group_292" data-name="Group 292" transform="translate(70.958 91.196)">
          <path id="Path_309" data-name="Path 309" d="M130.013,216.595h0l0,0Z" transform="translate(-130.013 -216.595)" fill="#bbd9f9"/>
          <path id="Path_310" data-name="Path 310" d="M351.411,269.992c-106.842,0-200.451-23.274-221.385-53.379l35.1,53.377c16.715,27.144,96.015,48.2,186.849,48.2,92.581,0,172.744-21.873,186.6-49.774l32.069-50.553C548.661,247.359,456.77,269.992,351.411,269.992Z" transform="translate(-130.002 -216.58)" fill="#bbd9f9"/>
        </g>
        <g id="Group_293" data-name="Group 293">
          <path id="Path_311" data-name="Path 311" d="M91.165,166.667h0l0,0Z" transform="translate(-91.165 -166.667)" fill="#bbd9f9"/>
          <path id="Path_312" data-name="Path 312" d="M382.648,230.742c-139.906,0-263.122-27.93-291.466-64.053l47.531,64.052c22.554,32.573,126.346,57.84,244.6,57.84,120.534,0,225.539-26.248,244.456-59.726l43.618-60.665C641.613,203.583,520.611,230.742,382.648,230.742Z" transform="translate(-91.15 -166.648)" fill="#bbd9f9"/>
        </g>
      </g>
      <g id="Group_295" data-name="Group 295" transform="translate(0 34.961)">
        <path id="Path_313" data-name="Path 313" stroke-linecap="round" d="M220.236,142.709c-11.526-10.291-12.221-28.81-5.889-42.906,12.934-28.794,49.222-41.423,80.25-35.625s57.368,26.021,80,48.026c5.825,5.662,11.726,11.642,19.287,14.609,21.486,8.431,43.141-10.212,59.737-26.251,27.11-26.206,63.385-51.037,99.788-41.214,28.1,7.58,48,36.315,48.27,65.414s-17.336,56.893-42.213,71.992-55.982,18.2-84.343,11.683" fill="none" stroke="#83bcf0" transform="translate(36.358 -57.153)" stroke-linejoin="round" stroke-width="1.25" stroke-dasharray="3.206 3.153" opacity="0.5"/>
        <path id="Path_314" data-name="Path 314" stroke-linecap="round" d="M84.908,328.548c-20.324,30.334-6.517,75.128,23.407,96.051s70.5,21.246,105.151,9.746C284.216,410.869,341.9,352.8,395.8,303.957c60.483-54.8,129.113-108.294,206.751-109.451,18.848-.281,38.345,2.855,54.38,14.012,21.54,14.987,39.837,56.243,11.739,75.614" fill="none" stroke="#83bcf0" transform="translate(-75.289 56.363)" stroke-linejoin="round" stroke-width="1.33" stroke-dasharray="3.409 3.353" opacity="0.5"/>
        <path id="Path_315" data-name="Path 315" stroke-linecap="round" d="M299.594,300.272c-62.419,6.751-126.6-6-179.411-40.628-12.729-8.344-24.951-18.077-33.134-30.911S75.2,199.477,80.368,185.16c7.052-19.546,28.878-30.582,49.644-31.36s40.865,6.619,60.326,13.907L285,203.156c15.493,5.8,31.274,11.666,47.788,12.642s34.175-3.664,45.231-15.971,13.049-33.152,1.595-45.087" fill="none" stroke="#83bcf0" transform="translate(-73.065 22.685)" stroke-linejoin="round" stroke-width="1.33" stroke-dasharray="3.409 3.353" opacity="0.5"/>
      </g>
      <g id="Group_302" data-name="Group 302" transform="translate(244.14 619.54)">
        <g id="Group_298" data-name="Group 298" transform="translate(5.443 1.898)">
          <g id="Group_297" data-name="Group 297" transform="translate(0 0)">
            <circle id="Ellipse_9" data-name="Ellipse 9" cx="42.431" cy="42.431" r="42.431" transform="translate(0 62.247) rotate(-47.181)" fill="#ff840a"/>
          </g>
        </g>
        <g id="Group_301" data-name="Group 301" transform="translate(109.33 12.907)">
          <g id="Group_300" data-name="Group 300">
            <path id="Path_317" data-name="Path 317" d="M309.428,404.078a20.314,20.314,0,1,1-20.808-19.807A20.312,20.312,0,0,1,309.428,404.078Z" transform="translate(-268.807 -384.265)" fill="#ff840a"/>
          </g>
        </g>
        <path id="Path_324" data-name="Path 324" d="M3.591,0A3.591,3.591,0,1,1,0,3.591,3.591,3.591,0,0,1,3.591,0Z" transform="translate(0 33.538)" fill="none" stroke="#ff840a" stroke-width="0.944"/>
        <path id="Path_319" data-name="Path 319" d="M229.152,397.738h.2a10.167,10.167,0,0,1,10.168-10.168v-.2a10.169,10.169,0,0,1-10.168-10.17h-.2a10.17,10.17,0,0,1-10.17,10.17v.2A10.169,10.169,0,0,1,229.152,397.738Z" transform="translate(-200.659 -377.198)" fill="#ff840a"/>
      </g>
      <g transform="matrix(1, 0, 0, 1, -0.84, 0)" filter="url(#LEADS_MANAGEMENT)">
        <text id="LEADS_MANAGEMENT-2" data-name="LEADS
MANAGEMENT" transform="translate(315.54 401.9)" fill="#1e3558" font-size="55" font-family="Helvetica" letter-spacing="0.1em"><tspan x="-101.181" y="0">LEADS</tspan><tspan x="-221.842" y="58">MANAGEMENT</tspan></text>
      </g>
    </g>
    <g id="Group_307" data-name="Group 307" transform="translate(669.97 221.263)">
      <rect id="Rectangle_145" data-name="Rectangle 145" width="58.676" height="72.739" rx="3.787" transform="translate(0 55.527) rotate(-71.143)" fill="#83bcf0"/>
      <g id="internet_1_" data-name="internet (1)" transform="translate(27.054 7.216) rotate(17)">
        <g id="Group_306" data-name="Group 306" transform="translate(0 0)">
          <g id="Group_305" data-name="Group 305" transform="translate(0 0)">
            <path id="Path_320" data-name="Path 320" d="M25.507,0A25.507,25.507,0,1,0,40.619,46.056a.892.892,0,0,1-.607-.3l-4.178-4.669-2.25,3.453-1.858-9.386,9.554,2.972L37.168,39.9l4.178,4.669a.889.889,0,0,1,.209.765A25.506,25.506,0,0,0,25.507,0Z" fill="#fff"/>
            <g id="Group_304" data-name="Group 304" transform="translate(6.338 21.318)">
              <path id="Path_321" data-name="Path 321" d="M3.188,6l.234,1.3.026.009L3.734,6,5.623,0h1.3L8.811,6l.3,1.421H9.14L9.435,6l1.516-6h1.594L9.825,9.375h-1.3L6.671,3.6,6.264,1.923H6.238L5.848,3.6,4.029,9.375H2.721L0,0H1.6Z" transform="translate(0 0)" fill="#83bcf0"/>
              <path id="Path_322" data-name="Path 322" d="M3.189,6l.234,1.3.026.009L3.734,6,5.623,0h1.3L8.812,6l.3,1.421h.026L9.435,6l1.516-6h1.594L9.825,9.375h-1.3L6.671,3.6,6.264,1.923H6.238L5.848,3.6,4.029,9.375H2.721L0,0H1.6Z" transform="translate(13.429 0)" fill="#83bcf0"/>
              <path id="Path_323" data-name="Path 323" d="M3.188,6l.234,1.3.026.009L3.734,6,5.623,0h1.3L8.811,6l.3,1.421h.026L9.435,6l1.516-6h1.594L9.825,9.375h-1.3L6.671,3.6,6.264,1.923H6.238L5.848,3.6,4.029,9.375H2.721L0,0H1.6Z" transform="translate(26.859 0)" fill="#83bcf0"/>
            </g>
          </g>
        </g>
      </g>
    </g>
    <text id="_" data-name="£" transform="translate(454.259 850.432)" fill="#fff" font-size="54" font-family="Roboto-Regular, Roboto"><tspan x="0" y="0">£</tspan></text>
    <text id="_2" data-name="£" transform="translate(524.016 817.608)" fill="#fff" font-size="30" font-family="Roboto-Regular, Roboto"><tspan x="0" y="0">£</tspan></text>
  </g>
</svg>
